HIERARCHY
ROOT Hips
{
	OFFSET -0.179506 -22.333345 2.821913
	CHANNELS 6 Xposition Yposition Zposition Zrotation Yrotation Xrotation 
	JOINT LeftUpLeg
	{
		OFFSET 6.951974 -9.140623 -0.681533
		CHANNELS 3 Zrotation Yrotation Xrotation
		JOINT LeftLeg
		{
			OFFSET 3.427654 -37.519855 -0.449580
			CHANNELS 3 Zrotation Yrotation Xrotation
			JOINT LeftFoot
			{
				OFFSET -1.359570 -39.796059 -4.369333
				CHANNELS 3 Zrotation Yrotation Xrotation
				JOINT LeftToe
				{
					OFFSET 2.635814 -5.579078 11.928840
					CHANNELS 3 Zrotation Yrotation Xrotation
					End Site
					{
						OFFSET 0.000000 0.000000 0.000000
					}
				}
			}
		}
	}
	JOINT RightUpLeg
	{
		OFFSET -6.767048 -9.052170 -0.431982
		CHANNELS 3 Zrotation Yrotation Xrotation
		JOINT RightLeg
		{
			OFFSET -3.829005 -38.256897 -0.885003
			CHANNELS 3 Zrotation Yrotation Xrotation
			JOINT RightFoot
			{
				OFFSET 1.577377 -39.841461 -4.231180
				CHANNELS 3 Zrotation Yrotation Xrotation
				JOINT RightToe
				{
					OFFSET -2.537174 -4.814398 12.334795
					CHANNELS 3 Zrotation Yrotation Xrotation
					End Site
					{
						OFFSET 0.000000 0.000000 0.000000
					}
				}
			}
		}
	}
	JOINT Spine
	{
		OFFSET -0.253288 10.896323 -2.669631
		CHANNELS 3 Zrotation Yrotation Xrotation
		JOINT Spine1
		{
			OFFSET 0.548704 13.518043 0.109247
			CHANNELS 3 Zrotation Yrotation Xrotation
			JOINT Spine2
			{
				OFFSET 0.145701 5.292222 2.542457
				CHANNELS 3 Zrotation Yrotation Xrotation
				JOINT Neck
				{
					OFFSET -0.277840 21.387037 -4.285703
					CHANNELS 3 Zrotation Yrotation Xrotation
					JOINT Head
					{
						OFFSET 0.515184 6.496960 5.134897
						CHANNELS 3 Zrotation Yrotation Xrotation
						End Site
						{
							OFFSET 0.000000 0.000000 0.000000
						}
					}
				}
				JOINT LeftShoulder
				{
					OFFSET 7.884473 12.174932 -3.408961
					CHANNELS 3 Zrotation Yrotation Xrotation
					JOINT LeftArm
					{
						OFFSET 9.097692 3.046888 -0.886815
						CHANNELS 3 Zrotation Yrotation Xrotation
						JOINT LeftForeArm
						{
							OFFSET 25.961220 -1.277207 -2.745643
							CHANNELS 3 Zrotation Yrotation Xrotation
							JOINT LeftHand
							{
								OFFSET 24.923361 0.898606 -0.117091
								CHANNELS 3 Zrotation Yrotation Xrotation
								End Site
								{
									OFFSET 0.000000 0.000000 0.000000
								}
							}
						}
					}
				}
				JOINT RightShoulder
				{
					OFFSET -8.175920 11.883285 -3.861528
					CHANNELS 3 Zrotation Yrotation Xrotation
					JOINT RightArm
					{
						OFFSET -9.601238 3.255117 -0.914307
						CHANNELS 3 Zrotation Yrotation Xrotation
						JOINT RightForeArm
						{
							OFFSET -25.374195 -1.332924 -2.140099
							CHANNELS 3 Zrotation Yrotation Xrotation
							JOINT RightHand
							{
								OFFSET -25.529810 0.777228 -0.555919
								CHANNELS 3 Zrotation Yrotation Xrotation
								End Site
								{
									OFFSET 0.000000 0.000000 0.000000
								}
							}
						}
					}
				}
			}
		}
	}
}
MOTION
Frames: 7
Frame Time: 0.033333
-30.112738 -327.476624 95.797073 178.679879 0.357406 87.229678 -0.642957 -0.019020 5.352361 2.851179 -11.127788 -3.085819 2.127320 6.490309 -4.494203 nan nan nan -0.666140 -1.994975 -1.057685 0.165084 0.928897 6.894869 5.168256 -4.590471 -1.374815 nan nan nan -1.129940 2.857914 4.502098 2.841080 -3.423971 10.398217 0.845754 -0.080835 -5.955545 -1.545825 -2.799233 0.928472 5.498564 -3.725819 -6.623280 -27.489820 -7.179826 1.474756 -54.110074 -6.721961 16.586804 1.716505 -20.492594 3.334277 -8.437459 -8.150190 7.443100 28.796264 12.146307 2.580508 51.306543 7.150039 14.984971 -7.146012 20.067444 -2.351339 9.460238 8.337481 5.141230 
-30.222719 -326.850464 95.667778 179.941016 0.141479 86.073445 -0.865756 -0.094615 7.295050 2.968843 -11.662475 -3.847325 1.900719 6.007609 -4.570966 nan nan nan -1.223807 -2.482190 1.672454 0.326685 0.584542 5.325679 5.368948 -4.836670 -1.609284 nan nan nan -0.902701 2.545610 4.458950 2.342997 -3.718243 10.345706 0.798429 -0.725668 -4.616382 -1.064976 -2.778432 0.881394 5.426398 -3.760558 -6.695839 -28.196697 -7.024345 2.392800 -53.744563 -7.022669 15.090392 2.807246 -21.510910 4.466546 -8.904722 -8.728441 7.227322 28.795144 11.818779 2.598203 51.388422 7.210624 14.702579 -7.440256 20.692165 -0.800556 9.352960 8.038547 5.835187 
-30.163698 -326.839600 95.634453 179.982479 0.191192 86.212239 -0.748552 -0.171310 7.115604 2.908096 -11.651249 -3.802317 1.882664 5.995917 -4.559462 nan nan nan -1.124748 -2.436888 1.553348 0.338385 0.577203 5.258572 5.378417 -4.882425 -1.539742 nan nan nan -0.910646 2.504747 4.429040 2.315654 -3.672058 10.151347 0.819554 -0.744131 -4.501313 -0.980666 -2.840415 0.854066 5.426633 -3.775652 -6.664301 -28.272865 -6.792115 2.452919 -53.910782 -6.941267 15.013260 3.398681 -21.959185 4.617738 -8.877426 -8.824839 7.246092 28.800696 11.726164 2.617227 51.447829 7.235314 14.738647 -7.525513 20.889592 -0.443597 9.283379 8.012318 5.868192 
-30.124741 -327.193329 95.674309 -178.855197 0.276670 87.407631 -0.504668 0.958983 5.440809 3.267771 -13.375439 -4.119168 1.688167 5.310065 -4.172575 nan nan nan -1.050572 -2.722195 -0.151374 0.439704 0.034719 5.818971 5.573369 -5.154488 -1.450731 nan nan nan -1.200856 1.892355 3.771726 2.658276 -3.985561 10.029069 0.884129 -0.867299 -4.847356 -1.126445 -3.220803 1.220570 5.615897 -3.518058 -7.460216 -27.885314 -6.847049 1.912910 -54.318995 -6.967105 15.987681 3.218229 -21.159048 4.333758 -8.399599 -8.163074 7.840154 28.731797 11.387990 1.913003 51.443062 7.014845 14.924091 -7.205593 20.869904 -0.337845 9.351206 7.717642 6.439733 
-30.091757 -326.690186 95.662941 -179.893810 0.291522 85.904311 -0.664089 -0.321614 7.505330 2.987197 -11.577098 -3.698787 1.905804 5.955585 -4.575744 nan nan nan -1.080748 -2.557324 2.156819 0.419899 0.539558 4.994146 5.520399 -4.779255 -1.350703 nan nan nan -0.882058 2.576492 4.412826 2.308479 -3.691899 10.357713 0.910001 -0.913525 -4.247812 -0.899220 -2.855964 1.181309 5.498589 -3.782125 -7.416922 -28.355671 -6.811494 2.630689 -54.078102 -6.953303 14.680689 3.918415 -22.250441 5.036019 -9.262118 -8.803293 7.523116 28.723128 11.622047 2.525658 51.603190 7.301708 14.608574 -7.548199 21.270474 0.208448 9.387290 7.840416 6.311622 
-30.149488 -326.625366 95.687263 -179.639488 0.215088 85.644833 -0.956780 -0.353640 7.781354 3.331026 -11.601811 -3.716333 2.180732 5.743868 -4.327313 nan nan nan -1.148449 -2.679758 2.662122 0.136911 0.697744 4.672176 5.550848 -4.621518 -1.050194 nan nan nan -0.848659 2.670279 4.584219 2.325337 -3.806721 10.562980 0.960657 -1.012218 -4.162056 -1.132811 -3.017058 1.757773 5.573446 -3.811333 -8.730457 -28.411152 -6.900261 2.519282 -54.253233 -6.949372 14.646493 4.220904 -22.347234 5.216710 -9.738174 -8.522199 8.009530 28.491838 11.418626 1.929568 51.818152 7.406971 14.607052 -7.222669 21.588609 0.905637 9.752856 7.576782 7.106329 
-30.194715 -326.658051 95.672371 -179.726055 0.184458 85.626125 -1.115997 -0.272873 7.744708 3.429062 -11.421724 -3.645510 2.098522 5.706463 -4.241461 nan nan nan -1.185787 -2.739518 2.581715 0.061312 0.747584 4.804852 5.598273 -4.486730 -0.947818 nan nan nan -0.783106 2.632909 4.644744 2.383777 -3.815114 10.236084 0.898051 -1.268634 -3.702661 -1.010286 -2.687960 2.068516 5.347888 -3.700032 -9.448793 -27.915105 -6.434022 1.941294 -54.667639 -7.104676 14.764679 3.671520 -22.031564 5.989255 -10.092660 -8.356270 8.371086 28.118208 10.016095 0.630513 52.076137 8.420203 14.681215 -6.061796 21.187466 2.950264 10.327572 6.999572 8.994487 
